# File created by Blade
# Date/Time:  Wed Sep 24 19:25:39 2014
# Frame Rate: 120.000 fps
#------------------------------------------------------
:FULLY-SPECIFIED
:DEGREES
2257
root -15.962832 32.619754 -4.734865 23.341443 0.749828 0.583150
Spine -24.254251 25.538859 -7.799604
Head 10.497414 3.268658 7.084643
LeftShoulder -18.971888 29.461175 9.064426
LeftArm 7.998173 24.229912 -74.052318
LeftForeArm 4.915796 -0.000000 23.837690
LeftHand -26.339632 0.000000 -5.217838
LeftHandThumb1 -26.253704 0.000000 33.147579
RightShoulder -16.944636 12.384305 -25.327515
RightArm -10.953175 13.700016 69.191517
RightForeArm -17.698070 -0.000000 125.242231
RightHand -13.105974 -0.000000 -6.136046
RightHandThumb1 -24.326973 -0.000000 -32.862282
LeftUpLeg -32.190152 -29.960562 13.064227
LeftLeg 113.230479 -0.000000 -0.000000
LeftFoot 38.762210 12.203277 -14.721011
LeftToeBase 26.356917 -0.000000 -0.000000
RightUpLeg -18.061115 6.228673 4.337696
RightLeg -4.757765 -0.000000 0.000000
RightFoot -4.999160 9.358481 -7.536191
RightToeBase -3.916818 -0.000000 0.000000
2258
root -15.972156 32.619840 -4.736901 23.306823 0.903482 0.562195
Spine -24.170884 25.383674 -7.610305
Head 10.551334 3.321738 6.966097
LeftShoulder -18.938029 29.376400 9.080818
LeftArm 8.319300 24.047147 -73.947851
LeftForeArm 4.879412 -0.000000 24.358645
LeftHand -26.613039 -0.000000 -4.525043
LeftHandThumb1 -26.253704 0.000000 33.147579
RightShoulder -16.921478 12.398144 -25.395629
RightArm -10.982331 13.722202 69.217249
RightForeArm -17.652446 -0.000000 125.260890
RightHand -13.108950 0.000000 -6.184694
RightHandThumb1 -24.326973 -0.000000 -32.862282
LeftUpLeg -32.124039 -29.808060 12.969531
LeftLeg 113.081538 -0.000000 -0.000000
LeftFoot 38.765857 12.157894 -14.706195
LeftToeBase 25.822062 -0.000000 -0.000000
RightUpLeg -18.014916 6.177088 4.401723
RightLeg -4.790042 -0.000000 0.000000
RightFoot -4.949513 9.325895 -7.456062
RightToeBase -3.902570 -0.000000 0.000000
2259
root -15.976915 32.619257 -4.739404 23.272327 1.063477 0.590024
Spine -24.100610 25.219589 -7.486532
Head 10.608215 3.345151 6.899027
LeftShoulder -18.820841 29.192991 9.213455
LeftArm 8.494649 23.963886 -73.967684
LeftForeArm 4.861756 -0.000000 24.832445
LeftHand -26.515537 0.000000 -3.719721
LeftHandThumb1 -26.253704 0.000000 33.147579
RightShoulder -16.898626 12.387521 -25.427358
RightArm -10.990945 13.756130 69.191646
RightForeArm -17.627658 -0.000000 125.271851
RightHand -13.079764 -0.000000 -6.185207
RightHandThumb1 -24.326973 -0.000000 -32.862282
LeftUpLeg -32.058065 -29.680472 12.806353
LeftLeg 112.894200 -0.000000 -0.000000
LeftFoot 38.675307 12.260919 -14.804295
LeftToeBase 25.996665 -0.000000 -0.000000
RightUpLeg -18.015621 6.086206 4.429998
RightLeg -4.716998 -0.000000 0.000000
RightFoot -5.020410 9.225501 -7.501225
RightToeBase -3.884378 -0.000000 0.000000
2260
root -15.982178 32.620335 -4.742974 23.265184 1.222524 0.601979
Spine -24.070533 25.075917 -7.357913
Head 10.673403 3.389253 6.813438
LeftShoulder -18.723754 29.030420 9.296617
LeftArm 8.681206 23.875697 -73.917346
LeftForeArm 4.997363 -0.000000 25.356989
LeftHand -26.587368 -0.000000 -3.054848
LeftHandThumb1 -26.253704 0.000000 33.147579
RightShoulder -16.895354 12.362139 -25.480839
RightArm -10.990790 13.788266 69.204716
RightForeArm -17.615261 -0.000000 125.281655
RightHand -13.074722 0.000000 -6.158003
RightHandThumb1 -24.326973 -0.000000 -32.862282
LeftUpLeg -32.033173 -29.526501 12.687193
LeftLeg 112.695772 -0.000000 -0.000000
LeftFoot 38.646616 12.435040 -14.991162
LeftToeBase 25.964248 -0.000000 -0.000000
RightUpLeg -18.040222 6.045683 4.449082
RightLeg -4.664560 -0.000000 0.000000
RightFoot -5.035410 9.127367 -7.477214
RightToeBase -3.880506 -0.000000 0.000000
2261
root -15.992096 32.619600 -4.745001 23.215605 1.388691 0.590056
Spine -23.975616 24.938261 -7.180143
Head 10.713825 3.442778 6.720738
LeftShoulder -18.686964 28.932469 9.325160
LeftArm 8.986518 23.702653 -73.807056
LeftForeArm 5.282808 0.000000 25.867223
LeftHand -26.801809 -0.000000 -3.175391
LeftHandThumb1 -26.253704 0.000000 33.147579
RightShoulder -16.871051 12.397332 -25.522614
RightArm -11.041389 13.807311 69.165736
RightForeArm -17.633148 0.000000 125.306950
RightHand -13.063234 -0.000000 -6.133792
RightHandThumb1 -24.326973 -0.000000 -32.862282
LeftUpLeg -31.919821 -29.392209 12.542886
LeftLeg 112.480197 -0.000000 -0.000000
LeftFoot 38.559384 12.436693 -15.011381
LeftToeBase 25.911797 -0.000000 -0.000000
RightUpLeg -18.002703 6.107348 4.466108
RightLeg -4.653687 -0.000000 0.000000
RightFoot -5.010191 8.947350 -7.425724
RightToeBase -3.845537 -0.000000 0.000000
2262
root -15.999398 32.619351 -4.747926 23.208874 1.568555 0.586873
Spine -23.945538 24.795969 -7.015224
Head 10.760052 3.506733 6.588186
LeftShoulder -18.648919 28.853601 9.356628
LeftArm 9.273681 23.547023 -73.719113
LeftForeArm 5.484624 -0.000000 26.356150
LeftHand -26.833993 0.000000 -2.814962
LeftHandThumb1 -26.253704 0.000000 33.147579
RightShoulder -16.849960 12.401620 -25.589423
RightArm -11.092318 13.820541 69.147934
RightForeArm -17.574048 0.000000 125.336008
RightHand -13.048546 -0.000000 -6.178651
RightHandThumb1 -24.326973 -0.000000 -32.862282
LeftUpLeg -31.896774 -29.219487 12.436572
LeftLeg 112.279509 -0.000000 -0.000000
LeftFoot 38.439912 12.543166 -15.286256
LeftToeBase 25.768734 -0.000000 -0.000000
RightUpLeg -18.020375 6.111868 4.484166
RightLeg -4.618296 -0.000000 0.000000
RightFoot -5.026389 8.812204 -7.387526
RightToeBase -3.807392 -0.000000 0.000000
2263
root -16.006216 32.619413 -4.751863 23.192887 1.770392 0.573224
Spine -23.902274 24.660680 -6.816442
Head 10.804059 3.562171 6.434321
LeftShoulder -18.608968 28.835946 9.345728
LeftArm 9.613777 23.381962 -73.596630
LeftForeArm 5.447437 -0.000000 26.877254
LeftHand -27.011042 -0.000000 -2.424231
LeftHandThumb1 -26.253704 0.000000 33.147579
RightShoulder -16.817009 12.405290 -25.657313
RightArm -11.154777 13.888297 69.122630
RightForeArm -17.533448 0.000000 125.370815
RightHand -13.028363 -0.000000 -6.179353
RightHandThumb1 -24.326973 -0.000000 -32.862282
LeftUpLeg -31.868489 -29.064490 12.350125
LeftLeg 112.038514 -0.000000 -0.000000
LeftFoot 38.419603 12.439326 -15.257902
LeftToeBase 25.910568 -0.000000 -0.000000
RightUpLeg -18.027195 6.094346 4.525704
RightLeg -4.587219 -0.000000 0.000000
RightFoot -5.024304 8.651245 -7.369616
RightToeBase -3.792216 -0.000000 0.000000
2264
root -16.013363 32.619080 -4.756691 23.176969 1.987348 0.570020
Spine -23.863649 24.546732 -6.641216
Head 10.825710 3.605918 6.303788
LeftShoulder -18.533534 28.816584 9.368819
LeftArm 9.958587 23.274590 -73.483466
LeftForeArm 5.575393 0.000000 27.361963
LeftHand -27.188929 0.000000 -2.205542
LeftHandThumb1 -26.253704 0.000000 33.147579
RightShoulder -16.792160 12.388093 -25.712196
RightArm -11.227096 13.973822 69.066497
RightForeArm -17.464157 0.000000 125.417240
RightHand -13.027208 0.000000 -6.225866
RightHandThumb1 -24.326973 -0.000000 -32.862282
LeftUpLeg -31.859670 -28.917530 12.297615
LeftLeg 111.783201 -0.000000 -0.000000
LeftFoot 38.116713 12.902546 -15.930388
LeftToeBase 26.728886 -0.000000 -0.000000
RightUpLeg -18.028494 6.079772 4.557597
RightLeg -4.570830 -0.000000 0.000000
RightFoot -5.017249 8.476695 -7.353927
RightToeBase -3.791842 -0.000000 0.000000
2265
root -16.022451 32.617529 -4.760139 23.133868 2.205432 0.546369
Spine -23.784938 24.441452 -6.422050
Head 10.816765 3.636243 6.142947
LeftShoulder -18.485474 28.787015 9.365827
LeftArm 10.282145 23.150201 -73.394374
LeftForeArm 5.898589 -0.000000 27.780210
LeftHand -27.009479 -0.000000 -1.830591
LeftHandThumb1 -26.253704 0.000000 33.147579
RightShoulder -16.751573 12.400352 -25.779544
RightArm -11.319761 14.091586 69.018609
RightForeArm -17.453857 0.000000 125.466827
RightHand -13.062786 -0.000000 -6.255592
RightHandThumb1 -24.326973 -0.000000 -32.862282
LeftUpLeg -31.802339 -28.704568 12.276963
LeftLeg 111.536113 -0.000000 -0.000000
LeftFoot 37.948255 12.953785 -16.177859
LeftToeBase 27.144458 -0.000000 -0.000000
RightUpLeg -18.013317 6.040257 4.627078
RightLeg -4.517152 -0.000000 0.000000
RightFoot -5.041356 8.296246 -7.420176
RightToeBase -3.859234 -0.000000 0.000000
2266
root -16.022621 32.618108 -4.761926 23.115371 2.395115 0.571191
Spine -23.743697 24.352585 -6.263967
Head 10.815988 3.664026 5.948130
LeftShoulder -18.425205 28.592564 9.399369
LeftArm 10.369031 23.063530 -73.361937
LeftForeArm 6.219082 -0.000000 28.250202
LeftHand -27.006681 -0.000000 -1.755469
LeftHandThumb1 -26.253704 0.000000 33.147579
RightShoulder -16.733331 12.397516 -25.860557
RightArm -11.414237 14.183340 68.975241
RightForeArm -17.475147 -0.000000 125.516773
RightHand -13.056355 -0.000000 -6.200726
RightHandThumb1 -24.326973 -0.000000 -32.862282
LeftUpLeg -31.750206 -28.531354 12.106010
LeftLeg 111.274112 -0.000000 -0.000000
LeftFoot 37.874310 12.998978 -16.195917
LeftToeBase 27.268673 -0.000000 -0.000000
RightUpLeg -18.015989 5.994786 4.629367
RightLeg -4.484626 -0.000000 0.000000
RightFoot -5.047395 8.220922 -7.370732
RightToeBase -3.902765 -0.000000 0.000000
